<?xml version="1.0" encoding="UTF-8"?>
<svg width="874px" height="361px" viewBox="0 0 874 361" version="1.1" xmlns="http://www.w3.org/2000/svg" xmlns:xlink="http://www.w3.org/1999/xlink">
    <!-- Generator: Sketch 46.2 (44496) - http://www.bohemiancoding.com/sketch -->
    <title>Page 1</title>
    <desc>Created with Sketch.</desc>
    <defs>
        <polygon id="path-1" points="0 360.825778 873.136896 360.825778 873.136896 0.00215214724 0 0.00215214724"></polygon>
    </defs>
    <g id="Page-1" stroke="none" stroke-width="1" fill="none" fill-rule="evenodd">
        <g>
            <path d="M188.214961,297.395542 C185.094347,294.796825 250.083813,358.74788 251.127605,359.786291 L188.214961,359.786291 L188.214961,297.395542 Z" id="Fill-1" fill="#FFFFFF"></path>
            <polygon id="Fill-3" fill="#FFFFFF" points="90.4698135 267.759937 184.055936 174.173814 184.055936 360.824164"></polygon>
            <polygon id="Fill-5" fill="#FFFFFF" points="133.623056 31.1953742 227.209179 124.781497 133.623056 217.845724"></polygon>
            <polygon id="Fill-7" fill="#FFFFFF" points="134.142799 25.9957865 265.682039 25.9957865 200.170677 90.9852528"></polygon>
            <mask id="mask-2" fill="white">
                <use xlink:href="#path-1"></use>
            </mask>
            <g id="Clip-10"></g>
            <polygon id="Fill-9" fill="#FFFFFF" mask="url(#mask-2)" points="66.5551534 87.8635632 128.945902 87.8635632 128.945902 25.9947104 66.5551534 25.9947104"></polygon>
            <path d="M62.3939767,87.8667914 C62.3939767,87.8667914 -0.518667485,25.9979387 0.00322822086,25.9979387 L62.3939767,25.9979387" id="Fill-11" fill="#FFFFFF" mask="url(#mask-2)"></path>
            <polygon id="Fill-12" fill="#FFFFFF" mask="url(#mask-2)" points="297.398233 0 359.267085 0 294.799515 64.4729509 232.930662 64.4729509"></polygon>
            <polygon id="Fill-13" fill="#DB3070" mask="url(#mask-2)" points="382.450015 292.139999 382.450015 204.978036 367.384985 204.978036 367.384985 193.141226 410.427929 193.141226 410.427929 204.978036 395.362899 204.978036 395.362899 292.139999"></polygon>
            <polygon id="Fill-14" fill="#DB3070" mask="url(#mask-2)" points="420.650629 292.139999 420.650629 193.141226 433.025475 193.141226 433.025475 236.722207 451.856764 236.722207 451.856764 193.141226 464.769647 193.141226 464.769647 292.139999 451.856764 292.139999 451.856764 248.559017 433.025475 248.559017 433.025475 292.139999"></polygon>
            <path d="M492.747561,258.24368 L506.736518,258.24368 L499.74204,216.814845 L499.204003,216.814845 L492.747561,258.24368 Z M474.45431,292.139999 L493.285598,192.603189 L506.736518,192.603189 L525.02977,292.139999 L512.654923,292.139999 L508.888666,270.08049 L490.595414,270.08049 L486.829156,292.139999 L474.45431,292.139999 Z" id="Fill-15" fill="#DB3070" mask="url(#mask-2)"></path>
            <polygon id="Fill-16" fill="#DB3070" mask="url(#mask-2)" points="534.714433 292.139999 534.714433 193.141226 547.627316 193.141226 547.627316 280.303189 571.838972 280.303189 571.838972 292.139999"></polygon>
            <polygon id="Fill-17" fill="#DB3070" mask="url(#mask-2)" points="580.444871 292.139999 593.357755 292.139999 593.357755 193.141226 580.444871 193.141226"></polygon>
            <path d="M620.800322,258.24368 L634.789279,258.24368 L627.794801,216.814845 L627.256764,216.814845 L620.800322,258.24368 Z M602.507071,292.139999 L621.338359,192.603189 L634.789279,192.603189 L653.082531,292.139999 L640.707684,292.139999 L636.941426,270.08049 L618.648175,270.08049 L614.881917,292.139999 L602.507071,292.139999 Z" id="Fill-18" fill="#DB3070" mask="url(#mask-2)"></path>
            <path d="M366.846948,161.397054 L366.846948,153.326502 C368.999095,155.478649 371.689279,156.554723 373.841426,156.554723 C375.455537,156.554723 377.069647,156.016686 378.145721,154.940612 C379.221794,153.864539 379.759831,152.250428 379.759831,150.636318 C379.759831,149.022207 379.221794,147.408097 378.683758,145.25595 C378.145721,143.103802 375.993574,139.337545 373.30339,133.957177 C370.613206,128.576809 368.461058,124.272514 367.384985,121.58233 C366.308911,118.892146 366.308911,116.201962 366.308911,114.049815 C366.308911,109.74552 367.384985,106.517299 370.075169,103.827115 C372.765353,101.136931 375.455537,100.060858 379.221794,100.060858 C381.373942,100.060858 383.526089,100.598894 385.678236,101.674968 L385.678236,109.207483 C383.526089,108.13141 381.373942,107.055336 380.297868,107.055336 C376.53161,107.055336 374.379463,109.207483 374.379463,112.973741 C374.379463,114.587852 374.9175,116.201962 375.455537,118.354109 C375.993574,120.506256 378.145721,124.272514 380.835905,129.652882 C383.526089,135.03325 385.678236,139.337545 386.75431,142.027729 C387.830383,144.717913 387.830383,147.408097 387.830383,149.560244 C387.830383,153.864539 386.75431,157.09276 384.064126,159.782944 C381.911979,162.473128 378.683758,163.549201 374.9175,163.549201 C372.227316,163.549201 369.537132,163.011164 366.846948,161.397054" id="Fill-19" fill="#FFFFFF" mask="url(#mask-2)"></path>
            <polygon id="Fill-20" fill="#FFFFFF" mask="url(#mask-2)" points="400.20523 163.011164 400.20523 108.13141 390.520567 108.13141 390.520567 100.598894 417.422408 100.598894 417.422408 108.13141 407.737745 108.13141 407.737745 163.011164"></polygon>
            <path d="M423.87885,100.598894 L431.949402,100.598894 L431.949402,147.408097 C431.949402,153.326502 434.101549,156.016686 437.867807,156.016686 C439.481917,156.016686 441.096028,155.478649 442.172101,153.864539 C443.248175,152.250428 443.786212,150.098281 443.786212,147.408097 L443.786212,100.598894 L451.856764,100.598894 L451.856764,146.87006 C451.856764,152.250428 450.242653,156.554723 447.552469,159.244907 C444.862285,161.935091 441.634064,163.549201 437.867807,163.549201 C434.101549,163.549201 430.335291,161.935091 428.183144,159.244907 C425.49296,156.016686 424.416887,152.250428 424.416887,147.408097 L424.416887,100.598894 L423.87885,100.598894 Z" id="Fill-21" fill="#FFFFFF" mask="url(#mask-2)"></path>
            <path d="M469.611979,155.478649 L470.688052,155.478649 C475.530383,155.478649 478.758604,153.864539 480.910752,150.098281 C483.062899,146.332023 483.600936,140.413618 483.600936,132.343066 C483.600936,123.734477 482.524862,117.278036 480.910752,114.049815 C479.296641,110.283557 475.530383,108.669447 470.688052,108.669447 L469.073942,108.669447 L469.073942,155.478649 L469.611979,155.478649 Z M461.541426,163.011164 L461.541426,100.598894 L470.150015,100.598894 C484.138972,100.598894 491.671488,110.821594 491.671488,131.805029 C491.671488,142.027729 490.057377,150.098281 486.29112,154.940612 C482.524862,160.32098 477.682531,163.011164 471.226089,163.011164 L461.541426,163.011164 Z" id="Fill-22" fill="#FFFFFF" mask="url(#mask-2)"></path>
            <polygon id="Fill-23" fill="#FFFFFF" mask="url(#mask-2)" points="502.432224 163.011164 502.432224 134.495213 492.747561 100.598894 500.818113 100.598894 506.198482 124.810551 511.57885 100.598894 520.187439 100.598894 509.964739 134.495213 509.964739 163.011164"></polygon>
            <path d="M560.540199,141.489692 L569.686825,141.489692 L565.382531,115.663925 L560.540199,141.489692 Z M548.70339,163.011164 L560.540199,100.598894 L568.610752,100.598894 L580.447561,163.011164 L572.915046,163.011164 L570.762899,149.022207 L559.464126,149.022207 L556.773942,163.011164 L548.70339,163.011164 Z" id="Fill-24" fill="#FFFFFF" mask="url(#mask-2)"></path>
            <path d="M584.213819,161.397054 L584.213819,153.326502 C586.365966,155.478649 589.05615,156.554723 591.208298,156.554723 C592.822408,156.554723 594.436518,156.016686 595.512592,154.940612 C596.588666,153.864539 597.126702,152.250428 597.126702,150.636318 C597.126702,149.022207 596.588666,147.408097 596.050629,145.25595 C595.512592,143.103802 593.360445,139.337545 590.670261,133.957177 C587.980077,128.576809 585.827929,124.272514 584.751856,121.58233 C583.675782,118.892146 583.675782,116.201962 583.675782,114.049815 C583.675782,109.74552 584.751856,106.517299 587.44204,103.827115 C590.132224,101.136931 592.822408,100.060858 596.588666,100.060858 C598.740813,100.060858 600.89296,100.598894 603.045107,101.674968 L603.045107,109.207483 C600.89296,108.13141 598.740813,107.055336 597.664739,107.055336 C593.898482,107.055336 591.746334,109.207483 591.746334,112.973741 C591.746334,114.587852 592.284371,116.201962 592.822408,118.354109 C593.360445,120.506256 595.512592,124.272514 598.202776,129.652882 C600.89296,135.03325 603.045107,139.337545 604.121181,142.027729 C605.197255,144.717913 605.197255,147.408097 605.197255,149.560244 C605.197255,153.864539 604.121181,157.09276 601.430997,159.782944 C599.27885,162.473128 596.050629,163.549201 592.284371,163.549201 C589.594187,163.549201 586.904003,163.011164 584.213819,161.397054" id="Fill-25" fill="#FFFFFF" mask="url(#mask-2)"></path>
            <path d="M610.039586,161.397054 L610.039586,153.326502 C612.191733,155.478649 614.881917,156.554723 617.034064,156.554723 C618.648175,156.554723 620.262285,156.016686 621.338359,154.940612 C622.414433,153.864539 622.952469,152.250428 622.952469,150.636318 C622.952469,149.022207 622.414433,147.408097 621.876396,145.25595 C621.338359,143.103802 619.186212,139.337545 616.496028,133.957177 C613.805844,128.576809 611.653696,124.272514 610.577623,121.58233 C609.501549,118.892146 609.501549,116.201962 609.501549,114.049815 C609.501549,109.74552 610.577623,106.517299 613.267807,103.827115 C615.957991,101.136931 618.648175,100.060858 622.414433,100.060858 C624.56658,100.060858 626.718727,100.598894 628.870874,101.674968 L628.870874,109.207483 C626.718727,108.13141 624.56658,107.055336 623.490506,107.055336 C619.724248,107.055336 617.572101,109.207483 617.572101,112.973741 C617.572101,114.587852 618.110138,116.201962 618.648175,118.354109 C619.186212,120.506256 621.338359,124.272514 624.028543,129.652882 C626.718727,135.03325 628.870874,139.337545 629.946948,142.027729 C631.023021,144.717913 631.023021,147.408097 631.023021,149.560244 C631.023021,153.864539 629.946948,157.09276 627.256764,159.782944 C625.104617,162.473128 621.876396,163.549201 618.110138,163.549201 C615.419954,163.549201 612.72977,163.011164 610.039586,161.397054" id="Fill-26" fill="#FFFFFF" mask="url(#mask-2)"></path>
            <path d="M653.082531,107.055336 C650.392347,107.055336 648.240199,109.207483 647.164126,113.511778 C645.550015,117.816072 645.011979,123.734477 645.011979,131.266993 C645.011979,139.337545 645.550015,145.25595 647.164126,149.560244 C648.778236,153.864539 650.930383,156.016686 653.082531,156.016686 C655.772715,156.016686 657.386825,153.864539 659.000936,149.560244 C660.615046,145.25595 661.153083,139.337545 661.153083,131.805029 C661.153083,123.734477 660.615046,117.816072 659.000936,113.511778 C657.924862,109.207483 655.772715,107.055336 653.082531,107.055336 M653.082531,163.549201 C648.240199,163.549201 643.935905,160.859017 641.245721,154.940612 C638.0175,149.022207 636.40339,141.489692 636.40339,131.805029 C636.40339,122.658404 638.0175,114.587852 640.707684,108.669447 C643.397868,102.751042 647.702163,99.5228209 653.082531,99.5228209 C657.924862,99.5228209 662.229156,102.751042 665.457377,108.669447 C668.685598,114.587852 669.761672,122.120367 669.761672,131.805029 C669.761672,142.027729 668.147561,149.560244 664.91934,155.478649 C661.69112,160.859017 657.924862,163.549201 653.082531,163.549201" id="Fill-27" fill="#FFFFFF" mask="url(#mask-2)"></path>
            <path d="M702.04388,151.712391 L702.04388,160.32098 C698.81566,162.473128 696.125475,164.087238 692.359218,164.087238 C686.97885,164.087238 682.674555,161.397054 679.984371,156.016686 C677.294187,150.636318 675.680077,142.565766 675.680077,132.881103 C675.680077,123.19644 677.294187,114.587852 679.984371,109.207483 C682.674555,103.289079 686.97885,100.598894 692.359218,100.598894 C695.049402,100.598894 697.739586,101.674968 700.967807,103.827115 L700.967807,111.897667 C698.277623,109.207483 695.587439,108.13141 692.897255,108.13141 C689.669034,108.13141 687.516887,110.283557 685.902776,113.511778 C684.288666,116.739999 683.750629,123.734477 683.750629,132.343066 C683.750629,140.951655 684.288666,147.408097 685.902776,151.174355 C687.516887,154.940612 689.669034,157.09276 692.897255,157.09276 C696.125475,156.016686 698.81566,154.940612 702.04388,151.712391" id="Fill-28" fill="#FFFFFF" mask="url(#mask-2)"></path>
            <polygon id="Fill-29" fill="#FFFFFF" mask="url(#mask-2)" points="709.035669 163.011164 717.106221 163.011164 717.106221 100.598894 709.035669 100.598894"></polygon>
            <path d="M734.326089,141.489692 L743.472715,141.489692 L739.16842,115.663925 L734.326089,141.489692 Z M722.489279,163.011164 L734.326089,100.598894 L742.396641,100.598894 L754.233451,163.011164 L746.700936,163.011164 L744.548788,149.022207 L733.250015,149.022207 L730.559831,163.011164 L722.489279,163.011164 Z" id="Fill-30" fill="#FFFFFF" mask="url(#mask-2)"></path>
            <polygon id="Fill-31" fill="#FFFFFF" mask="url(#mask-2)" points="763.379539 163.011164 763.379539 108.13141 753.694876 108.13141 753.694876 100.598894 780.596717 100.598894 780.596717 108.13141 770.912054 108.13141 770.912054 163.011164"></polygon>
            <polygon id="Fill-32" fill="#FFFFFF" mask="url(#mask-2)" points="787.051006 163.011164 795.121558 163.011164 795.121558 100.598894 787.051006 100.598894"></polygon>
            <path d="M819.873404,107.055336 C817.18322,107.055336 815.031072,109.207483 813.954999,113.511778 C812.340888,117.816072 811.802852,123.734477 811.802852,131.266993 C811.802852,139.337545 812.340888,145.25595 813.954999,149.560244 C815.569109,153.864539 817.721256,156.016686 819.873404,156.016686 C822.563588,156.016686 824.177698,153.864539 825.791809,149.560244 C827.405919,145.25595 827.943956,139.337545 827.943956,131.805029 C827.943956,123.734477 827.405919,117.816072 825.791809,113.511778 C824.715735,109.207483 822.563588,107.055336 819.873404,107.055336 M819.873404,163.549201 C815.031072,163.549201 810.726778,160.859017 808.036594,154.940612 C804.808373,149.022207 803.194263,141.489692 803.194263,131.805029 C803.194263,122.658404 804.808373,114.587852 807.498557,108.669447 C810.188741,102.751042 814.493036,99.5228209 819.873404,99.5228209 C824.715735,99.5228209 829.020029,102.751042 832.24825,108.669447 C835.476471,114.587852 836.552545,122.120367 836.552545,131.805029 C836.552545,142.027729 834.938434,149.560244 831.710213,155.478649 C828.481993,160.859017 824.715735,163.549201 819.873404,163.549201" id="Fill-33" fill="#FFFFFF" mask="url(#mask-2)"></path>
            <polygon id="Fill-34" fill="#FFFFFF" mask="url(#mask-2)" points="845.161672 163.011164 845.161672 100.598894 851.618113 100.598894 865.607071 138.799508 865.607071 100.598894 873.139586 100.598894 873.139586 163.011164 866.683144 163.011164 852.694187 124.272514 852.694187 163.011164"></polygon>
        </g>
    </g>
</svg>