<?xml version="1.0" encoding="utf-8"?>
<!-- Generator: Adobe Illustrator 24.0.0, SVG Export Plug-In . SVG Version: 6.00 Build 0)  -->
<svg version="1.1" id="Layer_1" xmlns="http://www.w3.org/2000/svg" xmlns:xlink="http://www.w3.org/1999/xlink" x="0px" y="0px"
	 viewBox="0 0 874 361" style="enable-background:new 0 0 874 361;" xml:space="preserve">
<style type="text/css">
	.st0{fill:#000100;}
	.st1{fill:#E62272;}
</style>
<title>Page 1</title>
<desc>Created with Sketch.</desc>
<g>
	<g id="layer1_3_" transform="matrix(0.9663314,0,0,0.9663314,-37.342842,-419.76546)">
		<path id="hoekje_onder_3_" class="st0" d="M234.1,742.6c-3.5-2.7,64.1,63.6,65.2,64.4l-65.2,0C234.1,807,234.1,742.6,234.1,742.6
			L234.1,742.6z"/>
		<path id="Driehoek_onder_3_" class="st0" d="M132.7,711.6l96.8-96.8c0,0-0.1,193.1-0.2,193.2L132.7,711.6z"/>
		<path id="maindriehoek_3_" class="st0" d="M177.3,467c32.3,32.3,96.7,97,96.7,97s-96.8,96.5-96.7,96.6V467z"/>
		<path id="driehoekbovenmid_3_" class="st0" d="M177.8,461.4h136l-68,67.6L177.8,461.4z"/>
		<path id="blokje_3_" class="st0" d="M107.9,461.4h64.9v64c0,0-64.6,0-64.9,0V461.4z"/>
		<path id="hoekjelinksboven_3_" class="st0" d="M103.4,525.4c0,0-64.9-64.1-64.8-64.1l64.8,0.1"/>
		<path id="raarding_3_" class="st0" d="M347,434.4h64L344.3,501h-64L347,434.4z"/>
	</g>
	<g>
		<path class="st1" d="M383.1,292.5v-87h-15.2v-11.9H411v11.9h-15.2v87H383.1z"/>
		<path class="st1" d="M421.4,292.5v-98.9h12.6v43.5H453v-43.5h12.6v98.9H453v-43.5h-18.9v43.5H421.4z"/>
		<path class="st1" d="M475.4,292.5l18.6-99.5h13.2l18.5,99.5h-12.3l-3.5-21.9h-18.4l-3.9,21.9H475.4z M493.5,258.7h14.2l-6.9-41.4
			h-0.4L493.5,258.7z"/>
		<path class="st1" d="M535.6,292.5v-98.9h12.7v87h24.4v11.9H535.6z"/>
		<path class="st1" d="M581.5,292.5v-98.9h12.7v98.9H581.5z"/>
		<path class="st1" d="M603.5,292.5l18.6-99.5h13.2l18.5,99.5h-12.3l-3.5-21.9h-18.4l-3.9,21.9H603.5z M621.6,258.7h14.2l-6.9-41.4
			h-0.4L621.6,258.7z"/>
	</g>
	<g>
		<path d="M367.6,161.4v-8.3c2.4,2.3,4.7,3.4,7,3.4c1.7,0,3.1-0.6,4.3-1.8c1.2-1.2,1.8-2.6,1.8-4.2c0-1.4-0.3-3.2-1-5.2
			c-0.7-2-2.5-5.8-5.4-11.3c-2.9-5.5-4.8-9.6-5.7-12.4c-0.9-2.8-1.3-5.3-1.3-7.5c0-4.2,1.2-7.6,3.6-10.3c2.4-2.7,5.4-4,9.1-4
			c2.1,0,4.3,0.5,6.7,1.6v7.5c-2.2-1.3-4-1.9-5.6-1.9c-4,0-6,2-6,5.9c0,1.5,0.3,3.2,1,5.3c0.7,2,2.5,5.8,5.4,11.2
			c2.9,5.4,4.8,9.5,5.7,12.4c0.9,2.8,1.3,5.3,1.3,7.5c0,4.2-1.2,7.7-3.6,10.3c-2.4,2.7-5.5,4-9.3,4
			C372.8,163.8,370.2,163,367.6,161.4z"/>
		<path d="M401.2,163v-54.8h-9.6v-7.5h27.1v7.5h-9.5V163H401.2z"/>
		<path d="M424.8,100.8h8v46.7c0,5.9,2,8.9,5.9,8.9c1.7,0,3.1-0.7,4.2-2.2c1.1-1.5,1.6-3.6,1.6-6.3v-47.1h8V147
			c0,5.5-1.4,9.6-4.1,12.5c-2.8,2.9-6,4.3-9.7,4.3c-4,0-7.3-1.5-9.9-4.5s-4-6.9-4-11.7L424.8,100.8L424.8,100.8z"/>
		<path d="M462.6,163v-62.2h8.8c14.2,0,21.3,10.3,21.3,31c0,10.3-1.8,18.1-5.3,23.4c-3.5,5.2-8.5,7.8-14.9,7.8L462.6,163L462.6,163z
			 M470.6,155.6h1.2c4.7,0,8.1-1.8,10-5.4c2-3.6,2.9-9.6,2.9-17.9c0-8.7-0.9-14.9-2.8-18.5c-1.9-3.6-5.2-5.4-10-5.4h-1.4
			L470.6,155.6L470.6,155.6z"/>
		<path d="M501.4,163v-62.2h8V163H501.4z"/>
		<path d="M520,163v-62.2h22.1v7.5H528v18.6h13v7.5h-13v21.2h14.9v7.5L520,163L520,163z"/>
		<path d="M560.7,163.8l-11.5-63h8.4l5.9,41.9l5.8-41.9h8.4l-11.5,63L560.7,163.8L560.7,163.8z"/>
		<path d="M583.8,163v-62.2h22.1v7.5h-14.1v18.6h13v7.5h-13v21.2h14.9v7.5L583.8,163L583.8,163z"/>
		<path d="M617.6,163v-62.2h6.7c5.3,0,9.4,1.6,12.2,4.7c2.8,3.1,4.2,7.3,4.2,12.5c0,5.9-2.2,10.4-6.5,13.3c3.3,2.4,6.2,8.7,8.5,18.9
			l2.9,12.8h-8.4l-2.4-10.7c-1.7-7.5-3.2-12.3-4.5-14.3c-1.3-2-2.8-3-4.7-2.8V163L617.6,163L617.6,163z M625.6,127.7h0.4
			c4.5,0,6.7-3.1,6.7-9.4c0-6.7-2.4-10-7.1-10.1L625.6,127.7L625.6,127.7z"/>
		<path d="M651.5,163v-62.2h22.1v7.5h-14.1v18.6h13v7.5h-13v21.2h14.9v7.5L651.5,163L651.5,163z"/>
		<path d="M685.3,163v-62.2h6.5l13.8,38.5l0.2-0.1v-38.4h7.4V163h-6.5l-13.8-38.7l-0.2,0V163H685.3z"/>
		<path d="M723.8,163v-62.2h8V163H723.8z"/>
		<path d="M771.6,129.6v30.6c-3.8,2.5-7.4,3.7-11,3.7c-6.3,0-11.3-2.8-15-8.4c-3.7-5.6-5.5-13.4-5.5-23.4c0-9.9,1.8-17.7,5.3-23.4
			c3.5-5.7,8.3-8.6,14.2-8.6c3.6,0,7.5,1.5,11.9,4.5v8.5c-4.5-4.1-8.3-6.1-11.6-6.1c-7.9,0-11.9,8.4-11.9,25.1
			c0,16.3,4.2,24.4,12.6,24.4c0.7,0,1.6-0.1,2.8-0.3v-19h-5.5v-7.5L771.6,129.6L771.6,129.6z"/>
		<path d="M780.9,163v-62.2h8V163H780.9z"/>
		<path d="M799.6,163v-62.2h6.5l13.8,38.5l0.2-0.1v-38.4h7.4V163h-6.5l-13.8-38.7l-0.2,0V163H799.6z"/>
		<path d="M867.5,129.6v30.6c-3.8,2.5-7.4,3.7-11,3.7c-6.3,0-11.3-2.8-15-8.4c-3.7-5.6-5.5-13.4-5.5-23.4c0-9.9,1.8-17.7,5.3-23.4
			c3.5-5.7,8.3-8.6,14.2-8.6c3.6,0,7.5,1.5,11.9,4.5v8.5c-4.5-4.1-8.3-6.1-11.6-6.1c-7.9,0-11.9,8.4-11.9,25.1
			c0,16.3,4.2,24.4,12.6,24.4c0.7,0,1.6-0.1,2.8-0.3v-19h-5.5v-7.5L867.5,129.6L867.5,129.6z"/>
	</g>
</g>
</svg>
