<?xml version="1.0" encoding="utf-8"?>
<!-- Generator: Adobe Illustrator 23.0.1, SVG Export Plug-In . SVG Version: 6.00 Build 0)  -->
<svg version="1.1" id="Layer_1" xmlns="http://www.w3.org/2000/svg" xmlns:xlink="http://www.w3.org/1999/xlink" x="0px" y="0px"
	 viewBox="0 0 874 361" style="enable-background:new 0 0 874 361;" xml:space="preserve">
<style type="text/css">
	.st0{fill-rule:evenodd;clip-rule:evenodd;fill:#000105;}
	.st1{filter:url(#Adobe_OpacityMaskFilter);}
	.st2{fill-rule:evenodd;clip-rule:evenodd;fill:#FFFFFF;}
	.st3{mask:url(#mask-2_1_);fill-rule:evenodd;clip-rule:evenodd;fill:#000105;}
	.st4{filter:url(#Adobe_OpacityMaskFilter_1_);}
	.st5{mask:url(#mask-2_2_);fill-rule:evenodd;clip-rule:evenodd;fill:#000105;}
	.st6{filter:url(#Adobe_OpacityMaskFilter_2_);}
	.st7{mask:url(#mask-2_3_);fill-rule:evenodd;clip-rule:evenodd;fill:#000105;}
	.st8{filter:url(#Adobe_OpacityMaskFilter_3_);}
	.st9{mask:url(#mask-2_4_);fill-rule:evenodd;clip-rule:evenodd;fill:#E62272;}
	.st10{filter:url(#Adobe_OpacityMaskFilter_4_);}
	.st11{mask:url(#mask-2_5_);fill-rule:evenodd;clip-rule:evenodd;fill:#E62272;}
	.st12{filter:url(#Adobe_OpacityMaskFilter_5_);}
	.st13{mask:url(#mask-2_6_);fill-rule:evenodd;clip-rule:evenodd;fill:#E62272;}
	.st14{filter:url(#Adobe_OpacityMaskFilter_6_);}
	.st15{mask:url(#mask-2_7_);fill-rule:evenodd;clip-rule:evenodd;fill:#E62272;}
	.st16{filter:url(#Adobe_OpacityMaskFilter_7_);}
	.st17{mask:url(#mask-2_8_);fill-rule:evenodd;clip-rule:evenodd;fill:#E62272;}
	.st18{filter:url(#Adobe_OpacityMaskFilter_8_);}
	.st19{mask:url(#mask-2_9_);fill-rule:evenodd;clip-rule:evenodd;fill:#E62272;}
	.st20{filter:url(#Adobe_OpacityMaskFilter_9_);}
	.st21{mask:url(#mask-2_10_);fill-rule:evenodd;clip-rule:evenodd;fill:#000105;}
	.st22{filter:url(#Adobe_OpacityMaskFilter_10_);}
	.st23{mask:url(#mask-2_11_);fill-rule:evenodd;clip-rule:evenodd;fill:#000105;}
	.st24{filter:url(#Adobe_OpacityMaskFilter_11_);}
	.st25{mask:url(#mask-2_12_);fill-rule:evenodd;clip-rule:evenodd;fill:#000105;}
	.st26{filter:url(#Adobe_OpacityMaskFilter_12_);}
	.st27{mask:url(#mask-2_13_);fill-rule:evenodd;clip-rule:evenodd;fill:#000105;}
	.st28{filter:url(#Adobe_OpacityMaskFilter_13_);}
	.st29{mask:url(#mask-2_14_);fill-rule:evenodd;clip-rule:evenodd;fill:#000105;}
	.st30{filter:url(#Adobe_OpacityMaskFilter_14_);}
	.st31{mask:url(#mask-2_15_);fill-rule:evenodd;clip-rule:evenodd;fill:#000105;}
	.st32{filter:url(#Adobe_OpacityMaskFilter_15_);}
	.st33{mask:url(#mask-2_16_);fill-rule:evenodd;clip-rule:evenodd;fill:#000105;}
	.st34{filter:url(#Adobe_OpacityMaskFilter_16_);}
	.st35{mask:url(#mask-2_17_);fill-rule:evenodd;clip-rule:evenodd;fill:#000105;}
	.st36{filter:url(#Adobe_OpacityMaskFilter_17_);}
	.st37{mask:url(#mask-2_18_);fill-rule:evenodd;clip-rule:evenodd;fill:#000105;}
	.st38{filter:url(#Adobe_OpacityMaskFilter_18_);}
	.st39{mask:url(#mask-2_19_);fill-rule:evenodd;clip-rule:evenodd;fill:#000105;}
	.st40{filter:url(#Adobe_OpacityMaskFilter_19_);}
	.st41{mask:url(#mask-2_20_);fill-rule:evenodd;clip-rule:evenodd;fill:#000105;}
	.st42{filter:url(#Adobe_OpacityMaskFilter_20_);}
	.st43{mask:url(#mask-2_21_);fill-rule:evenodd;clip-rule:evenodd;fill:#000105;}
	.st44{filter:url(#Adobe_OpacityMaskFilter_21_);}
	.st45{mask:url(#mask-2_22_);fill-rule:evenodd;clip-rule:evenodd;fill:#000105;}
	.st46{filter:url(#Adobe_OpacityMaskFilter_22_);}
	.st47{mask:url(#mask-2_23_);fill-rule:evenodd;clip-rule:evenodd;fill:#000105;}
	.st48{filter:url(#Adobe_OpacityMaskFilter_23_);}
	.st49{mask:url(#mask-2_24_);fill-rule:evenodd;clip-rule:evenodd;fill:#000105;}
	.st50{filter:url(#Adobe_OpacityMaskFilter_24_);}
	.st51{mask:url(#mask-2_25_);fill-rule:evenodd;clip-rule:evenodd;fill:#000105;}
</style>
<title>Page 1</title>
<desc>Created with Sketch.</desc>
<g id="Page-1">
	<g>
		<path id="Fill-1" class="st0" d="M188.2,297.4c-3.1-2.6,61.9,61.4,62.9,62.4h-62.9V297.4z"/>
		<polygon id="Fill-3" class="st0" points="90.5,267.8 184.1,174.2 184.1,360.8 		"/>
		<polygon id="Fill-5" class="st0" points="133.6,31.2 227.2,124.8 133.6,217.8 		"/>
		<polygon id="Fill-7" class="st0" points="134.1,26 265.7,26 200.2,91 		"/>
		<g id="Clip-10">
		</g>
		<defs>
			<filter id="Adobe_OpacityMaskFilter" filterUnits="userSpaceOnUse" x="66.6" y="26" width="62.4" height="61.9">
				<feColorMatrix  type="matrix" values="1 0 0 0 0  0 1 0 0 0  0 0 1 0 0  0 0 0 1 0"/>
			</filter>
		</defs>
		<mask maskUnits="userSpaceOnUse" x="66.6" y="26" width="62.4" height="61.9" id="mask-2_1_">
			<g class="st1">
				<polygon id="path-1_1_" class="st2" points="0,360.8 873.1,360.8 873.1,0 0,0 				"/>
			</g>
		</mask>
		<polygon id="Fill-9" class="st3" points="66.6,87.9 128.9,87.9 128.9,26 66.6,26 		"/>
		<defs>
			<filter id="Adobe_OpacityMaskFilter_1_" filterUnits="userSpaceOnUse" x="0" y="26" width="62.4" height="61.9">
				<feColorMatrix  type="matrix" values="1 0 0 0 0  0 1 0 0 0  0 0 1 0 0  0 0 0 1 0"/>
			</filter>
		</defs>
		<mask maskUnits="userSpaceOnUse" x="0" y="26" width="62.4" height="61.9" id="mask-2_2_">
			<g class="st4">
				<polygon id="path-1_2_" class="st2" points="0,360.8 873.1,360.8 873.1,0 0,0 				"/>
			</g>
		</mask>
		<path id="Fill-11" class="st5" d="M62.4,87.9C62.4,87.9-0.5,26,0,26h62.4"/>
		<defs>
			<filter id="Adobe_OpacityMaskFilter_2_" filterUnits="userSpaceOnUse" x="232.9" y="0" width="126.3" height="64.5">
				<feColorMatrix  type="matrix" values="1 0 0 0 0  0 1 0 0 0  0 0 1 0 0  0 0 0 1 0"/>
			</filter>
		</defs>
		<mask maskUnits="userSpaceOnUse" x="232.9" y="0" width="126.3" height="64.5" id="mask-2_3_">
			<g class="st6">
				<polygon id="path-1_3_" class="st2" points="0,360.8 873.1,360.8 873.1,0 0,0 				"/>
			</g>
		</mask>
		<polygon id="Fill-12" class="st7" points="297.4,0 359.3,0 294.8,64.5 232.9,64.5 		"/>
		<defs>
			<filter id="Adobe_OpacityMaskFilter_3_" filterUnits="userSpaceOnUse" x="367.4" y="193.1" width="43" height="99">
				<feColorMatrix  type="matrix" values="1 0 0 0 0  0 1 0 0 0  0 0 1 0 0  0 0 0 1 0"/>
			</filter>
		</defs>
		<mask maskUnits="userSpaceOnUse" x="367.4" y="193.1" width="43" height="99" id="mask-2_4_">
			<g class="st8">
				<polygon id="path-1_4_" class="st2" points="0,360.8 873.1,360.8 873.1,0 0,0 				"/>
			</g>
		</mask>
		<polygon id="Fill-13" class="st9" points="382.5,292.1 382.5,205 367.4,205 367.4,193.1 410.4,193.1 410.4,205 395.4,205 
			395.4,292.1 		"/>
		<defs>
			<filter id="Adobe_OpacityMaskFilter_4_" filterUnits="userSpaceOnUse" x="420.7" y="193.1" width="44.1" height="99">
				<feColorMatrix  type="matrix" values="1 0 0 0 0  0 1 0 0 0  0 0 1 0 0  0 0 0 1 0"/>
			</filter>
		</defs>
		<mask maskUnits="userSpaceOnUse" x="420.7" y="193.1" width="44.1" height="99" id="mask-2_5_">
			<g class="st10">
				<polygon id="path-1_5_" class="st2" points="0,360.8 873.1,360.8 873.1,0 0,0 				"/>
			</g>
		</mask>
		<polygon id="Fill-14" class="st11" points="420.7,292.1 420.7,193.1 433,193.1 433,236.7 451.9,236.7 451.9,193.1 464.8,193.1 
			464.8,292.1 451.9,292.1 451.9,248.6 433,248.6 433,292.1 		"/>
		<defs>
			<filter id="Adobe_OpacityMaskFilter_5_" filterUnits="userSpaceOnUse" x="474.5" y="192.6" width="50.6" height="99.5">
				<feColorMatrix  type="matrix" values="1 0 0 0 0  0 1 0 0 0  0 0 1 0 0  0 0 0 1 0"/>
			</filter>
		</defs>
		<mask maskUnits="userSpaceOnUse" x="474.5" y="192.6" width="50.6" height="99.5" id="mask-2_6_">
			<g class="st12">
				<polygon id="path-1_6_" class="st2" points="0,360.8 873.1,360.8 873.1,0 0,0 				"/>
			</g>
		</mask>
		<path id="Fill-15" class="st13" d="M492.7,258.2h14l-7-41.4h-0.5L492.7,258.2z M474.5,292.1l18.8-99.5h13.5l18.3,99.5h-12.4
			l-3.8-22.1h-18.3l-3.8,22.1H474.5z"/>
		<defs>
			<filter id="Adobe_OpacityMaskFilter_6_" filterUnits="userSpaceOnUse" x="534.7" y="193.1" width="37.1" height="99">
				<feColorMatrix  type="matrix" values="1 0 0 0 0  0 1 0 0 0  0 0 1 0 0  0 0 0 1 0"/>
			</filter>
		</defs>
		<mask maskUnits="userSpaceOnUse" x="534.7" y="193.1" width="37.1" height="99" id="mask-2_7_">
			<g class="st14">
				<polygon id="path-1_7_" class="st2" points="0,360.8 873.1,360.8 873.1,0 0,0 				"/>
			</g>
		</mask>
		<polygon id="Fill-16" class="st15" points="534.7,292.1 534.7,193.1 547.6,193.1 547.6,280.3 571.8,280.3 571.8,292.1 		"/>
		<defs>
			<filter id="Adobe_OpacityMaskFilter_7_" filterUnits="userSpaceOnUse" x="580.4" y="193.1" width="12.9" height="99">
				<feColorMatrix  type="matrix" values="1 0 0 0 0  0 1 0 0 0  0 0 1 0 0  0 0 0 1 0"/>
			</filter>
		</defs>
		<mask maskUnits="userSpaceOnUse" x="580.4" y="193.1" width="12.9" height="99" id="mask-2_8_">
			<g class="st16">
				<polygon id="path-1_8_" class="st2" points="0,360.8 873.1,360.8 873.1,0 0,0 				"/>
			</g>
		</mask>
		<polygon id="Fill-17" class="st17" points="580.4,292.1 593.4,292.1 593.4,193.1 580.4,193.1 		"/>
		<defs>
			<filter id="Adobe_OpacityMaskFilter_8_" filterUnits="userSpaceOnUse" x="602.5" y="192.6" width="50.6" height="99.5">
				<feColorMatrix  type="matrix" values="1 0 0 0 0  0 1 0 0 0  0 0 1 0 0  0 0 0 1 0"/>
			</filter>
		</defs>
		<mask maskUnits="userSpaceOnUse" x="602.5" y="192.6" width="50.6" height="99.5" id="mask-2_9_">
			<g class="st18">
				<polygon id="path-1_9_" class="st2" points="0,360.8 873.1,360.8 873.1,0 0,0 				"/>
			</g>
		</mask>
		<path id="Fill-18" class="st19" d="M620.8,258.2h14l-7-41.4h-0.5L620.8,258.2z M602.5,292.1l18.8-99.5h13.5l18.3,99.5h-12.4
			l-3.8-22.1h-18.3l-3.8,22.1H602.5z"/>
		<defs>
			<filter id="Adobe_OpacityMaskFilter_9_" filterUnits="userSpaceOnUse" x="366.3" y="100.1" width="21.5" height="63.5">
				<feColorMatrix  type="matrix" values="1 0 0 0 0  0 1 0 0 0  0 0 1 0 0  0 0 0 1 0"/>
			</filter>
		</defs>
		<mask maskUnits="userSpaceOnUse" x="366.3" y="100.1" width="21.5" height="63.5" id="mask-2_10_">
			<g class="st20">
				<polygon id="path-1_10_" class="st2" points="0,360.8 873.1,360.8 873.1,0 0,0 				"/>
			</g>
		</mask>
		<path id="Fill-19" class="st21" d="M366.8,161.4v-8.1c2.2,2.2,4.8,3.2,7,3.2c1.6,0,3.2-0.5,4.3-1.6s1.6-2.7,1.6-4.3
			c0-1.6-0.5-3.2-1.1-5.4c-0.5-2.2-2.7-5.9-5.4-11.3c-2.7-5.4-4.8-9.7-5.9-12.4s-1.1-5.4-1.1-7.5c0-4.3,1.1-7.5,3.8-10.2
			c2.7-2.7,5.4-3.8,9.1-3.8c2.2,0,4.3,0.5,6.5,1.6v7.5c-2.2-1.1-4.3-2.2-5.4-2.2c-3.8,0-5.9,2.2-5.9,5.9c0,1.6,0.5,3.2,1.1,5.4
			s2.7,5.9,5.4,11.3s4.8,9.7,5.9,12.4s1.1,5.4,1.1,7.5c0,4.3-1.1,7.5-3.8,10.2c-2.2,2.7-5.4,3.8-9.1,3.8
			C372.2,163.5,369.5,163,366.8,161.4"/>
		<defs>
			<filter id="Adobe_OpacityMaskFilter_10_" filterUnits="userSpaceOnUse" x="390.5" y="100.6" width="26.9" height="62.4">
				<feColorMatrix  type="matrix" values="1 0 0 0 0  0 1 0 0 0  0 0 1 0 0  0 0 0 1 0"/>
			</filter>
		</defs>
		<mask maskUnits="userSpaceOnUse" x="390.5" y="100.6" width="26.9" height="62.4" id="mask-2_11_">
			<g class="st22">
				<polygon id="path-1_11_" class="st2" points="0,360.8 873.1,360.8 873.1,0 0,0 				"/>
			</g>
		</mask>
		<polygon id="Fill-20" class="st23" points="400.2,163 400.2,108.1 390.5,108.1 390.5,100.6 417.4,100.6 417.4,108.1 407.7,108.1 
			407.7,163 		"/>
		<defs>
			<filter id="Adobe_OpacityMaskFilter_11_" filterUnits="userSpaceOnUse" x="423.9" y="100.6" width="28" height="63">
				<feColorMatrix  type="matrix" values="1 0 0 0 0  0 1 0 0 0  0 0 1 0 0  0 0 0 1 0"/>
			</filter>
		</defs>
		<mask maskUnits="userSpaceOnUse" x="423.9" y="100.6" width="28" height="63" id="mask-2_12_">
			<g class="st24">
				<polygon id="path-1_12_" class="st2" points="0,360.8 873.1,360.8 873.1,0 0,0 				"/>
			</g>
		</mask>
		<path id="Fill-21" class="st25" d="M423.9,100.6h8.1v46.8c0,5.9,2.2,8.6,5.9,8.6c1.6,0,3.2-0.5,4.3-2.2c1.1-1.6,1.6-3.8,1.6-6.5
			v-46.8h8.1v46.3c0,5.4-1.6,9.7-4.3,12.4s-5.9,4.3-9.7,4.3c-3.8,0-7.5-1.6-9.7-4.3c-2.7-3.2-3.8-7-3.8-11.8v-46.8H423.9z"/>
		<defs>
			<filter id="Adobe_OpacityMaskFilter_12_" filterUnits="userSpaceOnUse" x="461.5" y="100.6" width="30.1" height="62.4">
				<feColorMatrix  type="matrix" values="1 0 0 0 0  0 1 0 0 0  0 0 1 0 0  0 0 0 1 0"/>
			</filter>
		</defs>
		<mask maskUnits="userSpaceOnUse" x="461.5" y="100.6" width="30.1" height="62.4" id="mask-2_13_">
			<g class="st26">
				<polygon id="path-1_13_" class="st2" points="0,360.8 873.1,360.8 873.1,0 0,0 				"/>
			</g>
		</mask>
		<path id="Fill-22" class="st27" d="M469.6,155.5h1.1c4.8,0,8.1-1.6,10.2-5.4c2.2-3.8,2.7-9.7,2.7-17.8c0-8.6-1.1-15.1-2.7-18.3
			c-1.6-3.8-5.4-5.4-10.2-5.4h-1.6v46.8H469.6z M461.5,163v-62.4h8.6c14,0,21.5,10.2,21.5,31.2c0,10.2-1.6,18.3-5.4,23.1
			c-3.8,5.4-8.6,8.1-15.1,8.1H461.5z"/>
		<defs>
			<filter id="Adobe_OpacityMaskFilter_13_" filterUnits="userSpaceOnUse" x="492.7" y="100.6" width="27.4" height="62.4">
				<feColorMatrix  type="matrix" values="1 0 0 0 0  0 1 0 0 0  0 0 1 0 0  0 0 0 1 0"/>
			</filter>
		</defs>
		<mask maskUnits="userSpaceOnUse" x="492.7" y="100.6" width="27.4" height="62.4" id="mask-2_14_">
			<g class="st28">
				<polygon id="path-1_14_" class="st2" points="0,360.8 873.1,360.8 873.1,0 0,0 				"/>
			</g>
		</mask>
		<polygon id="Fill-23" class="st29" points="502.4,163 502.4,134.5 492.7,100.6 500.8,100.6 506.2,124.8 511.6,100.6 520.2,100.6 
			510,134.5 510,163 		"/>
		<defs>
			<filter id="Adobe_OpacityMaskFilter_14_" filterUnits="userSpaceOnUse" x="548.7" y="100.6" width="31.7" height="62.4">
				<feColorMatrix  type="matrix" values="1 0 0 0 0  0 1 0 0 0  0 0 1 0 0  0 0 0 1 0"/>
			</filter>
		</defs>
		<mask maskUnits="userSpaceOnUse" x="548.7" y="100.6" width="31.7" height="62.4" id="mask-2_15_">
			<g class="st30">
				<polygon id="path-1_15_" class="st2" points="0,360.8 873.1,360.8 873.1,0 0,0 				"/>
			</g>
		</mask>
		<path id="Fill-24" class="st31" d="M560.5,141.5h9.1l-4.3-25.8L560.5,141.5z M548.7,163l11.8-62.4h8.1l11.8,62.4h-7.5l-2.2-14
			h-11.3l-2.7,14H548.7z"/>
		<defs>
			<filter id="Adobe_OpacityMaskFilter_15_" filterUnits="userSpaceOnUse" x="583.7" y="100.1" width="21.5" height="63.5">
				<feColorMatrix  type="matrix" values="1 0 0 0 0  0 1 0 0 0  0 0 1 0 0  0 0 0 1 0"/>
			</filter>
		</defs>
		<mask maskUnits="userSpaceOnUse" x="583.7" y="100.1" width="21.5" height="63.5" id="mask-2_16_">
			<g class="st32">
				<polygon id="path-1_16_" class="st2" points="0,360.8 873.1,360.8 873.1,0 0,0 				"/>
			</g>
		</mask>
		<path id="Fill-25" class="st33" d="M584.2,161.4v-8.1c2.2,2.2,4.8,3.2,7,3.2c1.6,0,3.2-0.5,4.3-1.6c1.1-1.1,1.6-2.7,1.6-4.3
			c0-1.6-0.5-3.2-1.1-5.4c-0.5-2.2-2.7-5.9-5.4-11.3c-2.7-5.4-4.8-9.7-5.9-12.4c-1.1-2.7-1.1-5.4-1.1-7.5c0-4.3,1.1-7.5,3.8-10.2
			c2.7-2.7,5.4-3.8,9.1-3.8c2.2,0,4.3,0.5,6.5,1.6v7.5c-2.2-1.1-4.3-2.2-5.4-2.2c-3.8,0-5.9,2.2-5.9,5.9c0,1.6,0.5,3.2,1.1,5.4
			c0.5,2.2,2.7,5.9,5.4,11.3s4.8,9.7,5.9,12.4c1.1,2.7,1.1,5.4,1.1,7.5c0,4.3-1.1,7.5-3.8,10.2c-2.2,2.7-5.4,3.8-9.1,3.8
			C589.6,163.5,586.9,163,584.2,161.4"/>
		<defs>
			<filter id="Adobe_OpacityMaskFilter_16_" filterUnits="userSpaceOnUse" x="609.5" y="100.1" width="21.5" height="63.5">
				<feColorMatrix  type="matrix" values="1 0 0 0 0  0 1 0 0 0  0 0 1 0 0  0 0 0 1 0"/>
			</filter>
		</defs>
		<mask maskUnits="userSpaceOnUse" x="609.5" y="100.1" width="21.5" height="63.5" id="mask-2_17_">
			<g class="st34">
				<polygon id="path-1_17_" class="st2" points="0,360.8 873.1,360.8 873.1,0 0,0 				"/>
			</g>
		</mask>
		<path id="Fill-26" class="st35" d="M610,161.4v-8.1c2.2,2.2,4.8,3.2,7,3.2c1.6,0,3.2-0.5,4.3-1.6c1.1-1.1,1.6-2.7,1.6-4.3
			c0-1.6-0.5-3.2-1.1-5.4s-2.7-5.9-5.4-11.3c-2.7-5.4-4.8-9.7-5.9-12.4c-1.1-2.7-1.1-5.4-1.1-7.5c0-4.3,1.1-7.5,3.8-10.2
			c2.7-2.7,5.4-3.8,9.1-3.8c2.2,0,4.3,0.5,6.5,1.6v7.5c-2.2-1.1-4.3-2.2-5.4-2.2c-3.8,0-5.9,2.2-5.9,5.9c0,1.6,0.5,3.2,1.1,5.4
			s2.7,5.9,5.4,11.3s4.8,9.7,5.9,12.4c1.1,2.7,1.1,5.4,1.1,7.5c0,4.3-1.1,7.5-3.8,10.2c-2.2,2.7-5.4,3.8-9.1,3.8
			C615.4,163.5,612.7,163,610,161.4"/>
		<defs>
			<filter id="Adobe_OpacityMaskFilter_17_" filterUnits="userSpaceOnUse" x="636.4" y="99.5" width="33.4" height="64">
				<feColorMatrix  type="matrix" values="1 0 0 0 0  0 1 0 0 0  0 0 1 0 0  0 0 0 1 0"/>
			</filter>
		</defs>
		<mask maskUnits="userSpaceOnUse" x="636.4" y="99.5" width="33.4" height="64" id="mask-2_18_">
			<g class="st36">
				<polygon id="path-1_18_" class="st2" points="0,360.8 873.1,360.8 873.1,0 0,0 				"/>
			</g>
		</mask>
		<path id="Fill-27" class="st37" d="M653.1,107.1c-2.7,0-4.8,2.2-5.9,6.5c-1.6,4.3-2.2,10.2-2.2,17.8c0,8.1,0.5,14,2.2,18.3
			s3.8,6.5,5.9,6.5c2.7,0,4.3-2.2,5.9-6.5c1.6-4.3,2.2-10.2,2.2-17.8c0-8.1-0.5-14-2.2-18.3C657.9,109.2,655.8,107.1,653.1,107.1
			 M653.1,163.5c-4.8,0-9.1-2.7-11.8-8.6c-3.2-5.9-4.8-13.5-4.8-23.1c0-9.1,1.6-17.2,4.3-23.1s7-9.1,12.4-9.1
			c4.8,0,9.1,3.2,12.4,9.1c3.2,5.9,4.3,13.5,4.3,23.1c0,10.2-1.6,17.8-4.8,23.7C661.7,160.9,657.9,163.5,653.1,163.5"/>
		<defs>
			<filter id="Adobe_OpacityMaskFilter_18_" filterUnits="userSpaceOnUse" x="675.7" y="100.6" width="26.4" height="63.5">
				<feColorMatrix  type="matrix" values="1 0 0 0 0  0 1 0 0 0  0 0 1 0 0  0 0 0 1 0"/>
			</filter>
		</defs>
		<mask maskUnits="userSpaceOnUse" x="675.7" y="100.6" width="26.4" height="63.5" id="mask-2_19_">
			<g class="st38">
				<polygon id="path-1_19_" class="st2" points="0,360.8 873.1,360.8 873.1,0 0,0 				"/>
			</g>
		</mask>
		<path id="Fill-28" class="st39" d="M702,151.7v8.6c-3.2,2.2-5.9,3.8-9.7,3.8c-5.4,0-9.7-2.7-12.4-8.1c-2.7-5.4-4.3-13.5-4.3-23.1
			s1.6-18.3,4.3-23.7c2.7-5.9,7-8.6,12.4-8.6c2.7,0,5.4,1.1,8.6,3.2v8.1c-2.7-2.7-5.4-3.8-8.1-3.8c-3.2,0-5.4,2.2-7,5.4
			c-1.6,3.2-2.2,10.2-2.2,18.8s0.5,15.1,2.2,18.8c1.6,3.8,3.8,5.9,7,5.9C696.1,156,698.8,154.9,702,151.7"/>
		<defs>
			<filter id="Adobe_OpacityMaskFilter_19_" filterUnits="userSpaceOnUse" x="709" y="100.6" width="8.1" height="62.4">
				<feColorMatrix  type="matrix" values="1 0 0 0 0  0 1 0 0 0  0 0 1 0 0  0 0 0 1 0"/>
			</filter>
		</defs>
		<mask maskUnits="userSpaceOnUse" x="709" y="100.6" width="8.1" height="62.4" id="mask-2_20_">
			<g class="st40">
				<polygon id="path-1_20_" class="st2" points="0,360.8 873.1,360.8 873.1,0 0,0 				"/>
			</g>
		</mask>
		<polygon id="Fill-29" class="st41" points="709,163 717.1,163 717.1,100.6 709,100.6 		"/>
		<defs>
			<filter id="Adobe_OpacityMaskFilter_20_" filterUnits="userSpaceOnUse" x="722.5" y="100.6" width="31.7" height="62.4">
				<feColorMatrix  type="matrix" values="1 0 0 0 0  0 1 0 0 0  0 0 1 0 0  0 0 0 1 0"/>
			</filter>
		</defs>
		<mask maskUnits="userSpaceOnUse" x="722.5" y="100.6" width="31.7" height="62.4" id="mask-2_21_">
			<g class="st42">
				<polygon id="path-1_21_" class="st2" points="0,360.8 873.1,360.8 873.1,0 0,0 				"/>
			</g>
		</mask>
		<path id="Fill-30" class="st43" d="M734.3,141.5h9.1l-4.3-25.8L734.3,141.5z M722.5,163l11.8-62.4h8.1l11.8,62.4h-7.5l-2.2-14
			h-11.3l-2.7,14H722.5z"/>
		<defs>
			<filter id="Adobe_OpacityMaskFilter_21_" filterUnits="userSpaceOnUse" x="753.7" y="100.6" width="26.9" height="62.4">
				<feColorMatrix  type="matrix" values="1 0 0 0 0  0 1 0 0 0  0 0 1 0 0  0 0 0 1 0"/>
			</filter>
		</defs>
		<mask maskUnits="userSpaceOnUse" x="753.7" y="100.6" width="26.9" height="62.4" id="mask-2_22_">
			<g class="st44">
				<polygon id="path-1_22_" class="st2" points="0,360.8 873.1,360.8 873.1,0 0,0 				"/>
			</g>
		</mask>
		<polygon id="Fill-31" class="st45" points="763.4,163 763.4,108.1 753.7,108.1 753.7,100.6 780.6,100.6 780.6,108.1 770.9,108.1 
			770.9,163 		"/>
		<defs>
			<filter id="Adobe_OpacityMaskFilter_22_" filterUnits="userSpaceOnUse" x="787.1" y="100.6" width="8.1" height="62.4">
				<feColorMatrix  type="matrix" values="1 0 0 0 0  0 1 0 0 0  0 0 1 0 0  0 0 0 1 0"/>
			</filter>
		</defs>
		<mask maskUnits="userSpaceOnUse" x="787.1" y="100.6" width="8.1" height="62.4" id="mask-2_23_">
			<g class="st46">
				<polygon id="path-1_23_" class="st2" points="0,360.8 873.1,360.8 873.1,0 0,0 				"/>
			</g>
		</mask>
		<polygon id="Fill-32" class="st47" points="787.1,163 795.1,163 795.1,100.6 787.1,100.6 		"/>
		<defs>
			<filter id="Adobe_OpacityMaskFilter_23_" filterUnits="userSpaceOnUse" x="803.2" y="99.5" width="33.4" height="64">
				<feColorMatrix  type="matrix" values="1 0 0 0 0  0 1 0 0 0  0 0 1 0 0  0 0 0 1 0"/>
			</filter>
		</defs>
		<mask maskUnits="userSpaceOnUse" x="803.2" y="99.5" width="33.4" height="64" id="mask-2_24_">
			<g class="st48">
				<polygon id="path-1_24_" class="st2" points="0,360.8 873.1,360.8 873.1,0 0,0 				"/>
			</g>
		</mask>
		<path id="Fill-33" class="st49" d="M819.9,107.1c-2.7,0-4.8,2.2-5.9,6.5c-1.6,4.3-2.2,10.2-2.2,17.8c0,8.1,0.5,14,2.2,18.3
			c1.6,4.3,3.8,6.5,5.9,6.5c2.7,0,4.3-2.2,5.9-6.5s2.2-10.2,2.2-17.8c0-8.1-0.5-14-2.2-18.3C824.7,109.2,822.6,107.1,819.9,107.1
			 M819.9,163.5c-4.8,0-9.1-2.7-11.8-8.6c-3.2-5.9-4.8-13.5-4.8-23.1c0-9.1,1.6-17.2,4.3-23.1s7-9.1,12.4-9.1
			c4.8,0,9.1,3.2,12.4,9.1c3.2,5.9,4.3,13.5,4.3,23.1c0,10.2-1.6,17.8-4.8,23.7C828.5,160.9,824.7,163.5,819.9,163.5"/>
		<defs>
			<filter id="Adobe_OpacityMaskFilter_24_" filterUnits="userSpaceOnUse" x="845.2" y="100.6" width="28" height="62.4">
				<feColorMatrix  type="matrix" values="1 0 0 0 0  0 1 0 0 0  0 0 1 0 0  0 0 0 1 0"/>
			</filter>
		</defs>
		<mask maskUnits="userSpaceOnUse" x="845.2" y="100.6" width="28" height="62.4" id="mask-2_25_">
			<g class="st50">
				<polygon id="path-1_25_" class="st2" points="0,360.8 873.1,360.8 873.1,0 0,0 				"/>
			</g>
		</mask>
		<polygon id="Fill-34" class="st51" points="845.2,163 845.2,100.6 851.6,100.6 865.6,138.8 865.6,100.6 873.1,100.6 873.1,163 
			866.7,163 852.7,124.3 852.7,163 		"/>
	</g>
</g>
</svg>
