<?xml version="1.0" encoding="utf-8"?>
<!-- Generator: Adobe Illustrator 25.0.0, SVG Export Plug-In . SVG Version: 6.00 Build 0)  -->
<svg version="1.1" id="Laag_1" xmlns="http://www.w3.org/2000/svg" xmlns:xlink="http://www.w3.org/1999/xlink" x="0px" y="0px"
	 viewBox="0 0 1452 870" style="enable-background:new 0 0 1452 870;" xml:space="preserve">
<style type="text/css">
	.st0{fill:#FFFFFF;}
	.st1{fill:url(#SVGID_1_);}
	.st2{fill:url(#SVGID_2_);}
	.st3{fill:url(#SVGID_3_);}
	.st4{fill:url(#SVGID_4_);}
	.st5{fill:url(#SVGID_5_);}
	.st6{fill:url(#SVGID_6_);}
	.st7{fill:url(#SVGID_7_);}
	.st8{fill:url(#SVGID_8_);}
	.st9{fill:url(#SVGID_9_);}
	.st10{fill:url(#SVGID_10_);}
	.st11{fill:url(#SVGID_11_);}
	.st12{fill:url(#SVGID_12_);}
	.st13{fill:url(#SVGID_13_);}
	.st14{fill:url(#SVGID_14_);}
	.st15{fill:url(#SVGID_15_);}
	.st16{fill:url(#SVGID_16_);}
	.st17{fill:url(#SVGID_17_);}
	.st18{fill:url(#SVGID_18_);}
	.st19{fill:url(#SVGID_19_);}
	.st20{fill:url(#SVGID_20_);}
	.st21{fill:url(#SVGID_21_);stroke:url(#SVGID_22_);stroke-miterlimit:10;}
	.st22{fill:url(#SVGID_23_);stroke:url(#SVGID_24_);stroke-miterlimit:10;}
	.st23{fill:url(#SVGID_25_);stroke:url(#SVGID_26_);stroke-miterlimit:10;}
	.st24{fill:url(#SVGID_27_);stroke:url(#SVGID_28_);stroke-miterlimit:10;}
	.st25{fill:url(#SVGID_29_);stroke:url(#SVGID_30_);stroke-miterlimit:10;}
	.st26{fill:url(#SVGID_31_);stroke:url(#SVGID_32_);stroke-miterlimit:10;}
	.st27{fill:url(#SVGID_33_);stroke:url(#SVGID_34_);stroke-miterlimit:10;}
</style>
<g>
	<polygon class="st0" points="743.8,451.6 743.8,345.1 725.4,345.1 725.4,330.6 778,330.6 778,345.1 759.6,345.1 759.6,451.6 	"/>
	
		<linearGradient id="SVGID_1_" gradientUnits="userSpaceOnUse" x1="1023.42" y1="-112.2052" x2="1076" y2="-112.2052" gradientTransform="matrix(1 0 0 -1 -298 278.8898)">
		<stop  offset="0" style="stop-color:#CDA035"/>
		<stop  offset="0.11" style="stop-color:#DEB850"/>
		<stop  offset="0.27" style="stop-color:#F9DF7C"/>
		<stop  offset="0.41" style="stop-color:#FFF4A9"/>
		<stop  offset="0.57" style="stop-color:#F9DF7C"/>
		<stop  offset="0.76" style="stop-color:#E5C25C"/>
		<stop  offset="1" style="stop-color:#C7992E"/>
	</linearGradient>
	<path class="st1" d="M775,333.6v8.5h-18.4v106.5h-9.8V342.1h-18.4v-8.5H775 M778,330.6h-52.6v14.5h18.4v106.5h15.8V345.1H778V330.6
		z"/>
	<polygon class="st0" points="790.5,451.6 790.5,330.6 805.6,330.6 805.6,383.9 828.6,383.9 828.6,330.6 844.4,330.6 844.4,451.6 
		828.6,451.6 828.6,398.3 805.6,398.3 805.6,451.6 	"/>
	
		<linearGradient id="SVGID_2_" gradientUnits="userSpaceOnUse" x1="1088.5" y1="-112.2052" x2="1142.4" y2="-112.2052" gradientTransform="matrix(1 0 0 -1 -298 278.8898)">
		<stop  offset="0" style="stop-color:#CDA035"/>
		<stop  offset="0.11" style="stop-color:#DEB850"/>
		<stop  offset="0.27" style="stop-color:#F9DF7C"/>
		<stop  offset="0.41" style="stop-color:#FFF4A9"/>
		<stop  offset="0.57" style="stop-color:#F9DF7C"/>
		<stop  offset="0.76" style="stop-color:#E5C25C"/>
		<stop  offset="1" style="stop-color:#C7992E"/>
	</linearGradient>
	<path class="st2" d="M841.4,333.6v114.9h-9.8v-53.2h-29v53.2h-9.1v-115h9.1v53.2h29v-53.2H841.4 M844.4,330.6h-15.8v53.2h-23v-53.2
		h-15.1v120.9h15.1v-53.2h23v53.2h15.8L844.4,330.6L844.4,330.6z"/>
	<path class="st0" d="M856.2,451.6l23-121.6h16.4L918,451.6h-15.1l-4.6-27H876l-4.6,27H856.2z M878.6,410.2h17.1l-8.6-50.6h-0.7
		L878.6,410.2L878.6,410.2z"/>
	
		<linearGradient id="SVGID_3_" gradientUnits="userSpaceOnUse" x1="1154.2399" y1="-111.8352" x2="1216" y2="-111.8352" gradientTransform="matrix(1 0 0 -1 -298 278.8898)">
		<stop  offset="0" style="stop-color:#CDA035"/>
		<stop  offset="0.11" style="stop-color:#DEB850"/>
		<stop  offset="0.27" style="stop-color:#F9DF7C"/>
		<stop  offset="0.41" style="stop-color:#FFF4A9"/>
		<stop  offset="0.57" style="stop-color:#F9DF7C"/>
		<stop  offset="0.76" style="stop-color:#E5C25C"/>
		<stop  offset="1" style="stop-color:#C7992E"/>
	</linearGradient>
	<path class="st3" d="M893.2,333l21.2,115.6h-9l-4.2-24.5l-0.4-2.5h-27.4l-0.4,2.5l-4.2,24.5h-9L881.7,333H893.2 M875.1,413.2h24.2
		l-0.6-3.5l-8.5-50.7l-0.4-2.5h-5.8l-0.4,2.5l-7.9,50.6L875.1,413.2 M895.7,329.9h-16.4l-23,121.6h15.1l4.6-27h22.3l4.6,27H918
		L895.7,329.9L895.7,329.9z M878.6,410.1l7.9-50.6h0.7l8.6,50.6H878.6z"/>
	<polygon class="st0" points="929.9,451.6 929.9,330.6 945.6,330.6 945.6,437.1 975.2,437.1 975.2,451.6 	"/>
	
		<linearGradient id="SVGID_4_" gradientUnits="userSpaceOnUse" x1="1227.86" y1="-112.2051" x2="1273.21" y2="-112.2051" gradientTransform="matrix(1 0 0 -1 -298 278.8898)">
		<stop  offset="0" style="stop-color:#CDA035"/>
		<stop  offset="0.11" style="stop-color:#DEB850"/>
		<stop  offset="0.27" style="stop-color:#F9DF7C"/>
		<stop  offset="0.41" style="stop-color:#FFF4A9"/>
		<stop  offset="0.57" style="stop-color:#F9DF7C"/>
		<stop  offset="0.76" style="stop-color:#E5C25C"/>
		<stop  offset="1" style="stop-color:#C7992E"/>
	</linearGradient>
	<path class="st4" d="M942.6,333.6v106.5h29.6v8.5h-39.3V333.6H942.6 M945.6,330.6h-15.8v120.9h45.3v-14.5h-29.6V330.6z"/>
	<rect x="985.7" y="330.6" class="st0" width="15.8" height="121"/>
	
		<linearGradient id="SVGID_5_" gradientUnits="userSpaceOnUse" x1="1283.73" y1="-112.2051" x2="1299.51" y2="-112.2051" gradientTransform="matrix(1 0 0 -1 -298 278.8898)">
		<stop  offset="0" style="stop-color:#CDA035"/>
		<stop  offset="0.11" style="stop-color:#DEB850"/>
		<stop  offset="0.27" style="stop-color:#F9DF7C"/>
		<stop  offset="0.41" style="stop-color:#FFF4A9"/>
		<stop  offset="0.57" style="stop-color:#F9DF7C"/>
		<stop  offset="0.76" style="stop-color:#E5C25C"/>
		<stop  offset="1" style="stop-color:#C7992E"/>
	</linearGradient>
	<path class="st5" d="M998.5,333.6v114.9h-9.8V333.6H998.5 M1001.5,330.6h-15.8v120.9h15.8V330.6z"/>
	<path class="st0" d="M1012.7,451.6l23-121.6h16.4l22.3,121.6h-15.1l-4.6-27h-22.3l-4.6,27H1012.7z M1035,410.2h17.1l-8.5-50.6h-0.7
		L1035,410.2z"/>
	
		<linearGradient id="SVGID_6_" gradientUnits="userSpaceOnUse" x1="1310.6898" y1="-111.8352" x2="1372.4797" y2="-111.8352" gradientTransform="matrix(1 0 0 -1 -298 278.8898)">
		<stop  offset="0" style="stop-color:#CDA035"/>
		<stop  offset="0.11" style="stop-color:#DEB850"/>
		<stop  offset="0.27" style="stop-color:#F9DF7C"/>
		<stop  offset="0.41" style="stop-color:#FFF4A9"/>
		<stop  offset="0.57" style="stop-color:#F9DF7C"/>
		<stop  offset="0.76" style="stop-color:#E5C25C"/>
		<stop  offset="1" style="stop-color:#C7992E"/>
	</linearGradient>
	<path class="st6" d="M1049.6,333l21.2,115.6h-9l-4.2-24.5l-0.4-2.5h-27.4l-0.4,2.5l-4.2,24.5h-9l21.9-115.6H1049.6 M1031.5,413.2
		h24.1l-0.6-3.5l-8.5-50.7l-0.4-2.5h-5.8l-0.4,2.5l-7.9,50.6L1031.5,413.2 M1052.1,329.9h-16.4l-23,121.6h15.1l4.6-27h22.3l4.6,27
		h15.1L1052.1,329.9L1052.1,329.9z M1035,410.2l7.9-50.6h0.7l8.5,50.6H1035z"/>
	
		<linearGradient id="SVGID_7_" gradientUnits="userSpaceOnUse" x1="819.0163" y1="-480.7263" x2="750.0163" y2="-549.7264" gradientTransform="matrix(1 0 0 -1 -298 278.8898)">
		<stop  offset="0" style="stop-color:#CDA035"/>
		<stop  offset="0.11" style="stop-color:#DEB850"/>
		<stop  offset="0.27" style="stop-color:#F9DF7C"/>
		<stop  offset="0.41" style="stop-color:#FFF4A9"/>
		<stop  offset="0.57" style="stop-color:#F9DF7C"/>
		<stop  offset="0.76" style="stop-color:#E5C25C"/>
		<stop  offset="1" style="stop-color:#C7992E"/>
	</linearGradient>
	<path class="st7" d="M451.8,691.6c-6.8-5.7,135.7,134.6,138,136.8h-138V691.6z"/>
	
		<linearGradient id="SVGID_8_" gradientUnits="userSpaceOnUse" x1="749.6" y1="-481.0002" x2="887.83" y2="-481.0002" gradientTransform="matrix(1 0 0 -1 -298 278.8898)">
		<stop  offset="1.000000e-02" style="stop-color:#FAC82A"/>
		<stop  offset="0.25" style="stop-color:#FEF8CC"/>
		<stop  offset="0.3" style="stop-color:#F7EDBB"/>
		<stop  offset="0.41" style="stop-color:#E6CF8E"/>
		<stop  offset="0.55" style="stop-color:#CAA046"/>
		<stop  offset="0.6" style="stop-color:#C1912F"/>
		<stop  offset="0.87" style="stop-color:#EDD688"/>
		<stop  offset="1" style="stop-color:#FEF8CC"/>
	</linearGradient>
	<path class="st8" d="M461.8,716c18.8,18.7,52.8,52.4,103.6,102.4H461.8V716 M451.6,691.4c0,0,0,0.1,0.2,0.3v-0.1
		C451.8,691.5,451.7,691.4,451.6,691.4z M451.8,691.7v136.7h138C587.7,826.2,458.2,698.8,451.8,691.7z"/>
	
		<linearGradient id="SVGID_9_" gradientUnits="userSpaceOnUse" x1="340.07" y1="37.1798" x2="340.07" y2="446.5698" gradientTransform="matrix(1 0 0 -1 0 867.8898)">
		<stop  offset="0" style="stop-color:#CDA035"/>
		<stop  offset="0.11" style="stop-color:#DEB850"/>
		<stop  offset="0.27" style="stop-color:#F9DF7C"/>
		<stop  offset="0.41" style="stop-color:#FFF4A9"/>
		<stop  offset="0.57" style="stop-color:#F9DF7C"/>
		<stop  offset="0.76" style="stop-color:#E5C25C"/>
		<stop  offset="1" style="stop-color:#C7992E"/>
	</linearGradient>
	<polygon class="st9" points="237.4,626.6 442.7,421.3 442.7,830.7 237.4,626.6 	"/>
	
		<linearGradient id="SVGID_10_" gradientUnits="userSpaceOnUse" x1="535.44" y1="-347.1252" x2="740.71" y2="-347.1252" gradientTransform="matrix(1 0 0 -1 -298 278.8898)">
		<stop  offset="1.000000e-02" style="stop-color:#FAC82A"/>
		<stop  offset="0.25" style="stop-color:#FEF8CC"/>
		<stop  offset="0.3" style="stop-color:#F7EDBB"/>
		<stop  offset="0.41" style="stop-color:#E6CF8E"/>
		<stop  offset="0.55" style="stop-color:#CAA046"/>
		<stop  offset="0.6" style="stop-color:#C1912F"/>
		<stop  offset="0.87" style="stop-color:#EDD688"/>
		<stop  offset="1" style="stop-color:#FEF8CC"/>
	</linearGradient>
	<path class="st10" d="M432.7,445.5v361.2L251.6,626.6L432.7,445.5 M442.7,421.3L237.4,626.6l205.3,204.1L442.7,421.3L442.7,421.3z"
		/>
	
		<linearGradient id="SVGID_11_" gradientUnits="userSpaceOnUse" x1="434.725" y1="350.7798" x2="434.725" y2="760.1699" gradientTransform="matrix(1 0 0 -1 0 867.8898)">
		<stop  offset="0" style="stop-color:#CDA035"/>
		<stop  offset="0.11" style="stop-color:#DEB850"/>
		<stop  offset="0.27" style="stop-color:#F9DF7C"/>
		<stop  offset="0.41" style="stop-color:#FFF4A9"/>
		<stop  offset="0.57" style="stop-color:#F9DF7C"/>
		<stop  offset="0.76" style="stop-color:#E5C25C"/>
		<stop  offset="1" style="stop-color:#C7992E"/>
	</linearGradient>
	<polygon class="st11" points="332.1,107.7 537.4,313 332.1,517.1 332.1,107.7 	"/>
	
		<linearGradient id="SVGID_12_" gradientUnits="userSpaceOnUse" x1="630.09" y1="-33.5201" x2="835.36" y2="-33.5201" gradientTransform="matrix(1 0 0 -1 -298 278.8898)">
		<stop  offset="1.000000e-02" style="stop-color:#FAC82A"/>
		<stop  offset="0.25" style="stop-color:#FEF8CC"/>
		<stop  offset="0.3" style="stop-color:#F7EDBB"/>
		<stop  offset="0.41" style="stop-color:#E6CF8E"/>
		<stop  offset="0.55" style="stop-color:#CAA046"/>
		<stop  offset="0.6" style="stop-color:#C1912F"/>
		<stop  offset="0.87" style="stop-color:#EDD688"/>
		<stop  offset="1" style="stop-color:#FEF8CC"/>
	</linearGradient>
	<path class="st12" d="M342.1,131.9L523.2,313L342.1,493.1L342.1,131.9 M332.1,107.7v409.4L537.4,313L332.1,107.7L332.1,107.7z"/>
	
		<linearGradient id="SVGID_13_" gradientUnits="userSpaceOnUse" x1="405.3625" y1="699.4523" x2="549.6075" y2="843.7073" gradientTransform="matrix(1 0 0 -1 0 867.8898)">
		<stop  offset="0" style="stop-color:#CDA035"/>
		<stop  offset="0.11" style="stop-color:#DEB850"/>
		<stop  offset="0.27" style="stop-color:#F9DF7C"/>
		<stop  offset="0.41" style="stop-color:#FFF4A9"/>
		<stop  offset="0.57" style="stop-color:#F9DF7C"/>
		<stop  offset="0.76" style="stop-color:#E5C25C"/>
		<stop  offset="1" style="stop-color:#C7992E"/>
	</linearGradient>
	<polygon class="st13" points="333.2,96.3 621.7,96.3 478.1,238.9 	"/>
	
		<linearGradient id="SVGID_14_" gradientUnits="userSpaceOnUse" x1="631.23" y1="111.3048" x2="919.7401" y2="111.3048" gradientTransform="matrix(1 0 0 -1 -298 278.8898)">
		<stop  offset="1.000000e-02" style="stop-color:#FAC82A"/>
		<stop  offset="0.25" style="stop-color:#FEF8CC"/>
		<stop  offset="0.3" style="stop-color:#F7EDBB"/>
		<stop  offset="0.41" style="stop-color:#E6CF8E"/>
		<stop  offset="0.55" style="stop-color:#CAA046"/>
		<stop  offset="0.6" style="stop-color:#C1912F"/>
		<stop  offset="0.87" style="stop-color:#EDD688"/>
		<stop  offset="1" style="stop-color:#FEF8CC"/>
	</linearGradient>
	<path class="st14" d="M597.5,106.3L478,224.8L357.7,106.3H597.5 M621.7,96.3H333.2l144.8,142.5L621.7,96.3L621.7,96.3z"/>
	
		<linearGradient id="SVGID_15_" gradientUnits="userSpaceOnUse" x1="184.98" y1="703.7299" x2="321.83" y2="703.7299" gradientTransform="matrix(1 0 0 -1 0 867.8898)">
		<stop  offset="0" style="stop-color:#CDA035"/>
		<stop  offset="0.11" style="stop-color:#DEB850"/>
		<stop  offset="0.27" style="stop-color:#F9DF7C"/>
		<stop  offset="0.41" style="stop-color:#FFF4A9"/>
		<stop  offset="0.57" style="stop-color:#F9DF7C"/>
		<stop  offset="0.76" style="stop-color:#E5C25C"/>
		<stop  offset="1" style="stop-color:#C7992E"/>
	</linearGradient>
	<polygon class="st15" points="185,96.3 321.8,96.3 321.8,232 185,232 185,96.3 	"/>
	
		<linearGradient id="SVGID_16_" gradientUnits="userSpaceOnUse" x1="483" y1="114.7348" x2="619.83" y2="114.7348" gradientTransform="matrix(1 0 0 -1 -298 278.8898)">
		<stop  offset="1.000000e-02" style="stop-color:#FAC82A"/>
		<stop  offset="0.25" style="stop-color:#FEF8CC"/>
		<stop  offset="0.3" style="stop-color:#F7EDBB"/>
		<stop  offset="0.41" style="stop-color:#E6CF8E"/>
		<stop  offset="0.55" style="stop-color:#CAA046"/>
		<stop  offset="0.6" style="stop-color:#C1912F"/>
		<stop  offset="0.87" style="stop-color:#EDD688"/>
		<stop  offset="1" style="stop-color:#FEF8CC"/>
	</linearGradient>
	<path class="st16" d="M311.8,106.3V222H195V106.3H311.8 M321.8,96.3H185V232h136.8V96.3z"/>
	
		<linearGradient id="SVGID_17_" gradientUnits="userSpaceOnUse" x1="371.1464" y1="216.72" x2="507.4183" y2="80.4481" gradientTransform="matrix(1 0 0 -1 -298 278.8898)">
		<stop  offset="0" style="stop-color:#CDA035"/>
		<stop  offset="0.11" style="stop-color:#DEB850"/>
		<stop  offset="0.27" style="stop-color:#F9DF7C"/>
		<stop  offset="0.41" style="stop-color:#FFF4A9"/>
		<stop  offset="0.57" style="stop-color:#F9DF7C"/>
		<stop  offset="0.76" style="stop-color:#E5C25C"/>
		<stop  offset="1" style="stop-color:#C7992E"/>
	</linearGradient>
	<path class="st17" d="M175.9,232c0,0-138-135.7-136.8-135.7h136.8V232z"/>
	
		<linearGradient id="SVGID_18_" gradientUnits="userSpaceOnUse" x1="336.993" y1="114.7298" x2="473.86" y2="114.7298" gradientTransform="matrix(1 0 0 -1 -298 278.8898)">
		<stop  offset="1.000000e-02" style="stop-color:#FAC82A"/>
		<stop  offset="0.25" style="stop-color:#FEF8CC"/>
		<stop  offset="0.3" style="stop-color:#F7EDBB"/>
		<stop  offset="0.41" style="stop-color:#E6CF8E"/>
		<stop  offset="0.55" style="stop-color:#CAA046"/>
		<stop  offset="0.6" style="stop-color:#C1912F"/>
		<stop  offset="0.87" style="stop-color:#EDD688"/>
		<stop  offset="1" style="stop-color:#FEF8CC"/>
	</linearGradient>
	<path class="st18" d="M165.9,106.3v101.8c-36.6-36-80-78.9-103-101.8L165.9,106.3 M175.9,96.3H39C37.9,96.3,175.8,232,175.8,232
		L175.9,96.3L175.9,96.3z"/>
	
		<linearGradient id="SVGID_19_" gradientUnits="userSpaceOnUse" x1="688.455" y1="687.1898" x2="688.455" y2="828.5999" gradientTransform="matrix(1 0 0 -1 0 867.8898)">
		<stop  offset="0" style="stop-color:#CDA035"/>
		<stop  offset="0.11" style="stop-color:#DEB850"/>
		<stop  offset="0.27" style="stop-color:#F9DF7C"/>
		<stop  offset="0.41" style="stop-color:#FFF4A9"/>
		<stop  offset="0.57" style="stop-color:#F9DF7C"/>
		<stop  offset="0.76" style="stop-color:#E5C25C"/>
		<stop  offset="1" style="stop-color:#C7992E"/>
	</linearGradient>
	<polygon class="st19" points="691.3,39.3 827,39.3 685.6,180.7 549.9,180.7 	"/>
	
		<linearGradient id="SVGID_20_" gradientUnits="userSpaceOnUse" x1="847.9" y1="168.8948" x2="1125.01" y2="168.8948" gradientTransform="matrix(1 0 0 -1 -298 278.8898)">
		<stop  offset="1.000000e-02" style="stop-color:#FAC82A"/>
		<stop  offset="0.25" style="stop-color:#FEF8CC"/>
		<stop  offset="0.3" style="stop-color:#F7EDBB"/>
		<stop  offset="0.41" style="stop-color:#E6CF8E"/>
		<stop  offset="0.55" style="stop-color:#CAA046"/>
		<stop  offset="0.6" style="stop-color:#C1912F"/>
		<stop  offset="0.87" style="stop-color:#EDD688"/>
		<stop  offset="1" style="stop-color:#FEF8CC"/>
	</linearGradient>
	<path class="st20" d="M802.9,49.3L681.5,170.7H574L695.5,49.3H802.9 M827,39.3H691.3L549.9,180.7h135.7L827,39.3L827,39.3z"/>
	
		<linearGradient id="SVGID_21_" gradientUnits="userSpaceOnUse" x1="1068.47" y1="-415.1102" x2="1068.47" y2="-228.7602" gradientTransform="matrix(1 0 0 -1 -298 278.8898)">
		<stop  offset="0" style="stop-color:#CDA035"/>
		<stop  offset="0.11" style="stop-color:#DEB850"/>
		<stop  offset="0.27" style="stop-color:#F9DF7C"/>
		<stop  offset="0.41" style="stop-color:#FFF4A9"/>
		<stop  offset="0.57" style="stop-color:#F9DF7C"/>
		<stop  offset="0.76" style="stop-color:#E5C25C"/>
		<stop  offset="1" style="stop-color:#C7992E"/>
	</linearGradient>
	
		<linearGradient id="SVGID_22_" gradientUnits="userSpaceOnUse" x1="1032.97" y1="-321.9352" x2="1103.97" y2="-321.9352" gradientTransform="matrix(1 0 0 -1 -298 278.8898)">
		<stop  offset="0" style="stop-color:#CDA035"/>
		<stop  offset="0.11" style="stop-color:#DEB850"/>
		<stop  offset="0.27" style="stop-color:#F9DF7C"/>
		<stop  offset="0.41" style="stop-color:#FFF4A9"/>
		<stop  offset="0.57" style="stop-color:#F9DF7C"/>
		<stop  offset="0.76" style="stop-color:#E5C25C"/>
		<stop  offset="1" style="stop-color:#C7992E"/>
	</linearGradient>
	<path class="st21" d="M735.5,694V507.7h24v164h46V694H735.5z"/>
	
		<linearGradient id="SVGID_23_" gradientUnits="userSpaceOnUse" x1="1161.0199" y1="-417.6966" x2="1161.0199" y2="-228.7602" gradientTransform="matrix(1 0 0 -1 -298 278.8898)">
		<stop  offset="0" style="stop-color:#CDA035"/>
		<stop  offset="0.11" style="stop-color:#DEB850"/>
		<stop  offset="0.27" style="stop-color:#F9DF7C"/>
		<stop  offset="0.41" style="stop-color:#FFF4A9"/>
		<stop  offset="0.57" style="stop-color:#F9DF7C"/>
		<stop  offset="0.76" style="stop-color:#E5C25C"/>
		<stop  offset="1" style="stop-color:#C7992E"/>
	</linearGradient>
	
		<linearGradient id="SVGID_24_" gradientUnits="userSpaceOnUse" x1="1118.9398" y1="-323.2284" x2="1203.1" y2="-323.2284" gradientTransform="matrix(1 0 0 -1 -298 278.8898)">
		<stop  offset="0" style="stop-color:#CDA035"/>
		<stop  offset="0.11" style="stop-color:#DEB850"/>
		<stop  offset="0.27" style="stop-color:#F9DF7C"/>
		<stop  offset="0.41" style="stop-color:#FFF4A9"/>
		<stop  offset="0.57" style="stop-color:#F9DF7C"/>
		<stop  offset="0.76" style="stop-color:#E5C25C"/>
		<stop  offset="1" style="stop-color:#C7992E"/>
	</linearGradient>
	<path class="st22" d="M821.4,507.7h24v139.9c0,17.7,5.9,26.5,17.6,26.5c5.2,0,9.4-2.2,12.7-6.7s4.9-10.7,4.9-18.8v-141h24v138.4
		c0,16.4-4.1,28.8-12.4,37.5s-18,13-29.2,13c-11.4,0.2-22.3-4.7-29.7-13.5c-7.9-9-11.9-20.7-11.9-35L821.4,507.7z"/>
	
		<linearGradient id="SVGID_25_" gradientUnits="userSpaceOnUse" x1="1256.9" y1="-417.6003" x2="1256.9" y2="-226.3001" gradientTransform="matrix(1 0 0 -1 -298 278.8898)">
		<stop  offset="0" style="stop-color:#CDA035"/>
		<stop  offset="0.11" style="stop-color:#DEB850"/>
		<stop  offset="0.27" style="stop-color:#F9DF7C"/>
		<stop  offset="0.41" style="stop-color:#FFF4A9"/>
		<stop  offset="0.57" style="stop-color:#F9DF7C"/>
		<stop  offset="0.76" style="stop-color:#E5C25C"/>
		<stop  offset="1" style="stop-color:#C7992E"/>
	</linearGradient>
	
		<linearGradient id="SVGID_26_" gradientUnits="userSpaceOnUse" x1="1224.7501" y1="-321.9502" x2="1289.0499" y2="-321.9502" gradientTransform="matrix(1 0 0 -1 -298 278.8898)">
		<stop  offset="0" style="stop-color:#CDA035"/>
		<stop  offset="0.11" style="stop-color:#DEB850"/>
		<stop  offset="0.27" style="stop-color:#F9DF7C"/>
		<stop  offset="0.41" style="stop-color:#FFF4A9"/>
		<stop  offset="0.57" style="stop-color:#F9DF7C"/>
		<stop  offset="0.76" style="stop-color:#E5C25C"/>
		<stop  offset="1" style="stop-color:#C7992E"/>
	</linearGradient>
	<path class="st23" d="M928.5,689.3v-24.8c7.2,6.8,14.1,10.2,20.8,10.2c4.8,0.1,9.4-1.8,12.8-5.3c3.5-3.3,5.4-7.9,5.3-12.7
		c0-4.3-1-9.4-3-15.5s-7.4-17.3-16.2-33.7c-8.8-16.4-14.5-28.8-17.1-37.3s-4-15.9-4-22.3c0-12.5,3.6-22.8,10.7-30.7
		c7.1-7.9,16.2-11.9,27.3-11.9c6.3,0,12.9,1.6,20,4.9v22.6c-6.5-3.8-12.1-5.7-16.8-5.7c-12.1,0-18.1,5.9-18.1,17.7
		c0,4.4,1,9.6,3.1,15.7s7.4,17.3,16.2,33.5c8.8,16.2,14.4,28.6,17,37.1s3.9,16,3.9,22.6c0,12.7-3.6,23.1-10.7,31
		s-16.4,11.9-27.7,11.9C943.7,696.4,935.5,693.9,928.5,689.3z"/>
	
		<linearGradient id="SVGID_27_" gradientUnits="userSpaceOnUse" x1="1339.375" y1="-415.1102" x2="1339.375" y2="-228.7702" gradientTransform="matrix(1 0 0 -1 -298 278.8898)">
		<stop  offset="0" style="stop-color:#CDA035"/>
		<stop  offset="0.11" style="stop-color:#DEB850"/>
		<stop  offset="0.27" style="stop-color:#F9DF7C"/>
		<stop  offset="0.41" style="stop-color:#FFF4A9"/>
		<stop  offset="0.57" style="stop-color:#F9DF7C"/>
		<stop  offset="0.76" style="stop-color:#E5C25C"/>
		<stop  offset="1" style="stop-color:#C7992E"/>
	</linearGradient>
	
		<linearGradient id="SVGID_28_" gradientUnits="userSpaceOnUse" x1="1298.25" y1="-321.9402" x2="1380.5" y2="-321.9402" gradientTransform="matrix(1 0 0 -1 -298 278.8898)">
		<stop  offset="0" style="stop-color:#CDA035"/>
		<stop  offset="0.11" style="stop-color:#DEB850"/>
		<stop  offset="0.27" style="stop-color:#F9DF7C"/>
		<stop  offset="0.41" style="stop-color:#FFF4A9"/>
		<stop  offset="0.57" style="stop-color:#F9DF7C"/>
		<stop  offset="0.76" style="stop-color:#E5C25C"/>
		<stop  offset="1" style="stop-color:#C7992E"/>
	</linearGradient>
	<path class="st24" d="M1029.4,694V530h-28.6v-22.3h81.2V530h-28.6v164H1029.4z"/>
	
		<linearGradient id="SVGID_29_" gradientUnits="userSpaceOnUse" x1="1441.6599" y1="-415.1403" x2="1441.6599" y2="-228.7602" gradientTransform="matrix(1 0 0 -1 -298 278.8898)">
		<stop  offset="0" style="stop-color:#CDA035"/>
		<stop  offset="0.11" style="stop-color:#DEB850"/>
		<stop  offset="0.27" style="stop-color:#F9DF7C"/>
		<stop  offset="0.41" style="stop-color:#FFF4A9"/>
		<stop  offset="0.57" style="stop-color:#F9DF7C"/>
		<stop  offset="0.76" style="stop-color:#E5C25C"/>
		<stop  offset="1" style="stop-color:#C7992E"/>
	</linearGradient>
	
		<linearGradient id="SVGID_30_" gradientUnits="userSpaceOnUse" x1="1399.21" y1="-321.9503" x2="1484.2345" y2="-321.9503" gradientTransform="matrix(1 0 0 -1 -298 278.8898)">
		<stop  offset="0" style="stop-color:#CDA035"/>
		<stop  offset="0.11" style="stop-color:#DEB850"/>
		<stop  offset="0.27" style="stop-color:#F9DF7C"/>
		<stop  offset="0.41" style="stop-color:#FFF4A9"/>
		<stop  offset="0.57" style="stop-color:#F9DF7C"/>
		<stop  offset="0.76" style="stop-color:#E5C25C"/>
		<stop  offset="1" style="stop-color:#C7992E"/>
	</linearGradient>
	<path class="st25" d="M1101.7,694V507.7h20c16,0,28.2,4.7,36.6,14.1c8.4,9.4,12.6,21.9,12.6,37.5c0,17.7-6.4,31-19.3,39.9
		c10,7.1,18.5,25.9,25.5,56.5l8.6,38.3h-25.1l-7.2-32.2c-5.1-22.5-9.6-36.9-13.4-43c-3.8-6.1-8.5-8.9-14.2-8.2V694H1101.7z
		 M1125.7,588.3h1.1c13.4,0,20.2-9.4,20.2-28.2c0-20-7.1-30-21.2-30.1V588.3z"/>
	
		<linearGradient id="SVGID_31_" gradientUnits="userSpaceOnUse" x1="1541.835" y1="-417.6966" x2="1541.835" y2="-228.7602" gradientTransform="matrix(1 0 0 -1 -298 278.8898)">
		<stop  offset="0" style="stop-color:#CDA035"/>
		<stop  offset="0.11" style="stop-color:#DEB850"/>
		<stop  offset="0.27" style="stop-color:#F9DF7C"/>
		<stop  offset="0.41" style="stop-color:#FFF4A9"/>
		<stop  offset="0.57" style="stop-color:#F9DF7C"/>
		<stop  offset="0.76" style="stop-color:#E5C25C"/>
		<stop  offset="1" style="stop-color:#C7992E"/>
	</linearGradient>
	
		<linearGradient id="SVGID_32_" gradientUnits="userSpaceOnUse" x1="1499.7599" y1="-323.2284" x2="1583.91" y2="-323.2284" gradientTransform="matrix(1 0 0 -1 -298 278.8898)">
		<stop  offset="0" style="stop-color:#CDA035"/>
		<stop  offset="0.11" style="stop-color:#DEB850"/>
		<stop  offset="0.27" style="stop-color:#F9DF7C"/>
		<stop  offset="0.41" style="stop-color:#FFF4A9"/>
		<stop  offset="0.57" style="stop-color:#F9DF7C"/>
		<stop  offset="0.76" style="stop-color:#E5C25C"/>
		<stop  offset="1" style="stop-color:#C7992E"/>
	</linearGradient>
	<path class="st26" d="M1202.3,507.7h24v139.9c0,17.7,5.9,26.5,17.6,26.5c5.2,0,9.4-2.2,12.7-6.7s4.9-10.7,4.9-18.8v-141h24v138.4
		c0,16.4-4.1,28.8-12.4,37.5s-18,13-29.2,13c-11.4,0.2-22.3-4.7-29.7-13.5c-7.9-9-11.8-20.7-11.8-35L1202.3,507.7z"/>
	
		<linearGradient id="SVGID_33_" gradientUnits="userSpaceOnUse" x1="1662.245" y1="-415.1102" x2="1662.245" y2="-228.7202" gradientTransform="matrix(1 0 0 -1 -298 278.8898)">
		<stop  offset="0" style="stop-color:#CDA035"/>
		<stop  offset="0.11" style="stop-color:#DEB850"/>
		<stop  offset="0.27" style="stop-color:#F9DF7C"/>
		<stop  offset="0.41" style="stop-color:#FFF4A9"/>
		<stop  offset="0.57" style="stop-color:#F9DF7C"/>
		<stop  offset="0.76" style="stop-color:#E5C25C"/>
		<stop  offset="1" style="stop-color:#C7992E"/>
	</linearGradient>
	
		<linearGradient id="SVGID_34_" gradientUnits="userSpaceOnUse" x1="1613.5" y1="-321.9152" x2="1710.99" y2="-321.9152" gradientTransform="matrix(1 0 0 -1 -298 278.8898)">
		<stop  offset="0" style="stop-color:#CDA035"/>
		<stop  offset="0.11" style="stop-color:#DEB850"/>
		<stop  offset="0.27" style="stop-color:#F9DF7C"/>
		<stop  offset="0.41" style="stop-color:#FFF4A9"/>
		<stop  offset="0.57" style="stop-color:#F9DF7C"/>
		<stop  offset="0.76" style="stop-color:#E5C25C"/>
		<stop  offset="1" style="stop-color:#C7992E"/>
	</linearGradient>
	<path class="st27" d="M1364.3,576l27.7-68.4h20.6V694h-23.4l1.5-134.8l-0.7-0.5l-23.4,61.3h-4.4l-23.4-61.3l-0.7,0.5l1.5,134.8
		H1316V507.7h20.6L1364.3,576z"/>
</g>
</svg>
